<svg preserveAspectRatio="none" overflow="visible" style="display: block;" width="82.0085" height="71.1416" viewBox="0 0 82.0085 71.1416" fill="none" xmlns="http://www.w3.org/2000/svg">
<g id="item">
<path id="shape" d="M60.2836 4.45792H77.484C79.9816 4.45792 82.0085 2.46327 82.0085 0H51.1028V20.5521H46.6979V20.5545C41.6563 20.5881 37.5781 24.6231 37.5781 29.5977V51.5604C42.649 51.5604 46.7613 47.5111 46.7613 42.5124V21.4389L51.1028 21.1505V47.2299C51.1028 52.2261 55.2127 56.2755 60.2811 56.2755H60.286C63.5958 47.1362 63.6324 47.016 66.4422 40.0251C68.3252 35.3413 69.9667 32.967 69.9667 32.967V61.2597C75.0376 61.2597 79.1499 57.2103 79.1499 52.2117V20.5521C76.6523 20.5521 74.3912 21.5374 72.7351 23.1331V23.1307C72.718 23.1475 72.6985 23.1667 72.6814 23.1836C72.6644 23.2004 72.6473 23.2196 72.6278 23.2364C68.0764 27.5574 62.6812 42.3058 60.2884 50.479V4.45792H60.2836Z" fill="white"/>
<path id="shape_2" d="M48.3548 62.7737C41.8742 57.8304 32.7398 55.6507 26.4324 54.6942C29.7032 53.0648 31.513 49.7556 31.8081 45.9946C32.2642 40.5634 31.9544 35.25 31.8618 29.8452L31.7544 25.8343C31.7154 24.4092 31.8471 22.8808 30.9447 21.6383C30.0471 20.319 28.3983 19.9297 26.8836 20.0258C25.5445 20.009 24.2055 19.9272 22.8786 19.7662C17.9004 19.1294 12.732 17.3414 9.18071 13.7414V4.45792H26.447C28.9446 4.45792 30.9715 2.46327 30.9715 0H0.0658554V0.0336447H0V52.2165C0 57.2127 4.10986 61.2645 9.18315 61.2645V61.2525H9.19047C9.20998 61.1804 11.2076 53.7473 19.4297 51.5196C24.0957 51.0894 27.747 47.2251 27.747 42.5148V21.076C27.7836 21.076 27.8202 21.0784 27.8568 21.0784C29.9446 21.2658 30.6959 22.9625 30.5471 24.8442V25.8511L30.5666 29.8668C30.5447 35.1515 30.7276 40.5755 30.1739 45.8024C29.5471 51.6758 25.7226 54.2328 19.8493 53.9829V53.9925C19.4444 53.9708 19.2151 53.9636 19.2151 53.9636C19.2346 55.6531 20.3371 57.3113 22.0274 57.5996C39.1278 60.5123 48.8914 71.1416 48.8914 71.1416C51.3037 68.7649 51.0573 64.8357 48.3597 62.7785L48.3548 62.7737ZM18.5614 29.6001V49.1693C12.8393 50.9957 10.2124 55.2902 9.18071 57.5972V14.609C13.3442 18.6752 19.2639 20.4656 25.0738 20.9438C21.3054 22.0709 18.5639 25.5195 18.5639 29.6001H18.5614Z" fill="white"/>
</g>
</svg>
